<svg xmlns="http://www.w3.org/2000/svg" width="91.551" height="186.714" viewBox="0 0 91.551 186.714">
  <g id="Group_54470" data-name="Group 54470" transform="translate(0.236 0.25)">
    <path id="Path_12268" data-name="Path 12268" d="M249.106,306.794c-.183.081.061.784.358,2.745.072.474.248,1.636.328,2.745.188,2.6-.217,4,.209,4.148.39.136.717-1.044,2.029-1.462.848-.271,1.368.013,1.641-.358.117-.16.258-.535-.418-1.91a13.186,13.186,0,0,0-1.611-2.477C249.9,307.99,249.359,306.682,249.106,306.794Z" transform="translate(-219.813 -236.97)" fill="#fff"/>
    <path id="Path_12269" data-name="Path 12269" d="M258.358,337.247c-.066.4-5.123-.807-6.573,1.013a3.689,3.689,0,0,1-1.715,1.24c-.183.057-.542.166-.665.018-.2-.243.348-1.032.612-1.36a5.582,5.582,0,0,1,3.3-1.8C255.977,335.852,258.4,336.963,258.358,337.247Z" transform="translate(-220.036 -257.539)" fill="#fff"/>
    <path id="Path_12270" data-name="Path 12270" d="M261.188,345.631a7.3,7.3,0,0,0-1.387-1.45,7.844,7.844,0,0,0-4.1-1.513c-1.145-.134-5.648-.662-8.069,2.207-.817.968-1.049,1.969-1.513,3.972a15.056,15.056,0,0,0-.063,7.375,9.065,9.065,0,0,0,1.7,3.909c2.754,3.309,7.887,3.106,10.78,2.143a5.347,5.347,0,0,0,2.585-1.576c.9-1.083.985-2.284,1.072-4.413C262.516,348.482,262.138,346.952,261.188,345.631Z" transform="translate(-217.424 -261.952)" fill="#fff"/>
    <path id="Path_12271" data-name="Path 12271" d="M232.674,409.667c1.363-.067,1.754,1.158,4.052,1.426,2.174.253,2.826-.725,3.827-.3,2.132.9,2.267,6.648,1.126,11.257-.871,3.517-2.815,6.507-4.352,10.431-.1.252-.486,1.247-1.042,2.618-.47,1.159-.716,1.733-.905,2.2a35.421,35.421,0,0,0-1.509,4.657,10.553,10.553,0,0,0-.733-3.794c-.539-1.353-1.07-1.828-1.552-2.932a8.817,8.817,0,0,1-.508-4.992,9.173,9.173,0,0,1-3.254,4.752c-1.033.742-1.717.827-2.945,1.592a11.822,11.822,0,0,0-3.8,3.892,84.422,84.422,0,0,1,2.979-15.619,62.482,62.482,0,0,1,3.124-7.93C230.283,410.27,231.822,409.708,232.674,409.667Z" transform="translate(-200.276 -308.851)" fill="#fff"/>
    <path id="Path_12272" data-name="Path 12272" d="M228.552,511.979a2.986,2.986,0,0,0-2.336.836,4.257,4.257,0,0,0-1.451,2.066,4.773,4.773,0,0,0-1.058-2.681c-.25-.3-1.364-1.636-2.645-1.441-.628.1-1.17.541-1.791,1.493-1.4,2.141-1.759,4.633-1.86,8.409-.014.507-.018.706.025,4.673,0,0,.005.2.262,9.731.089,3.322.1,4.161.524,4.3.611.2,1.892-1.084,4.6-6.25,1.309,5.553,2.2,6.655,2.77,6.624.275-.014.607-.3,1.684-3.593a50.882,50.882,0,0,0,2.133-7.522c.211-1.185.041-.538.537-4.21.173-1.28.519-3.769.751-6.84.141-1.862.182-3.162-.6-4.359A2.6,2.6,0,0,0,228.552,511.979Z" transform="translate(-197.705 -379.474)" fill="#fff"/>
    <path id="Path_12273" data-name="Path 12273" d="M242.747,245.211c-1.877-.652-2.777,1.122-5.631,1.024-3.2-.11-4.79-2.438-5.529-1.843-.761.612.926,3.072,2.559,7.986,2.019,6.075,1.1,7.3,3.174,9.931a33.978,33.978,0,0,1,3.583,4.4c1.233,1.956,1.309,2.73,1.843,2.866,1.151.294,3.5-2.606,8.6-15.049a18.918,18.918,0,0,1-5.119-4.812C244.483,247.288,244.325,245.759,242.747,245.211Z" transform="translate(-207.486 -193.305)" fill="#fff"/>
    <path id="Path_12274" data-name="Path 12274" d="M183.511,313.995c-.844-.021-1.848,3.1-3.856,9.347a40.554,40.554,0,0,0-1.64,5.951c-.363,2.2-.166,2.645-.729,3.886-.243.536-1.144,2.358-1.032,3.218a2.4,2.4,0,0,0,.476,1.153s.03.037.06.067c.929.926,3.349.6,4.448-.692,1.384-1.631-.455-3.471.1-6.919.642-4,3.549-4.222,4.349-8.2C186.436,318.069,184.718,314.025,183.511,313.995Z" transform="translate(-168.948 -242.005)" fill="#cc2936"/>
    <path id="Path_12275" data-name="Path 12275" d="M184.836,308.685c.352.057.311,2.5.068,4.411a21.636,21.636,0,0,1-2.546,7.707,35.514,35.514,0,0,1,.773-7C183.579,311.692,184.434,308.62,184.836,308.685Z" transform="translate(-173.22 -238.295)" fill="#cc2936"/>
    <path id="Path_12276" data-name="Path 12276" d="M202.142,224.662c1.062.332.14,3.6,1.208,7.854.916,3.649,2.226,3.755,2.568,6.041.949,6.353-8.054,12.942-9.137,12.158-.633-.458,1.139-3.656,0-6.721-.252-.677-.48-.9-.68-.906-.456-.006-.726,1.16-1.435,2.945-.512,1.29-1.444,3.385-1.661,3.323-.236-.068.821-2.79,1.208-6.645.378-3.755-.308-4.319.244-8.167.361-2.515.592-3.988,1.759-5.361.614-.723.788-.6,3.475-2.8C201.522,224.884,201.778,224.548,202.142,224.662Z" transform="translate(-180.634 -179.573)" fill="#fff"/>
    <path id="Path_12277" data-name="Path 12277" d="M228.437,223.132c-.778.37-.581,2.292-.565,2.442a4.476,4.476,0,0,0,.974,2.274,5.791,5.791,0,0,0,2.833,1.723,9.064,9.064,0,0,0,4.033.587c.573-.051,2.973-.264,3.069-.981.115-.854-3.236-.963-6.961-3.829C230.131,224.048,229.156,222.79,228.437,223.132Z" transform="translate(-204.997 -178.479)" fill="#fff"/>
    <path id="Path_12278" data-name="Path 12278" d="M236.77,212.207a9.717,9.717,0,0,0,6.413-4.138,17.876,17.876,0,0,0,1.918,9.565,43.263,43.263,0,0,0-8.331-5.426Z" transform="translate(-211.238 -167.994)" fill="#fff"/>
    <path id="Path_12279" data-name="Path 12279" d="M203.5,200.117c.211-1.237.515-3.151.788-5.512.516-4.464.314-5.249,1.1-6.437,1.565-2.376,5.031-3.265,7.772-2.842,1.859.287,5.313,1.477,5.718,4.006.335,2.094-1.609,3.909-1.986,4.245-1.983,1.769-3.935,1.274-6.916,2.26A15.617,15.617,0,0,0,203.5,200.117Z" transform="translate(-187.99 -152.032)" fill="#fff"/>
    <path id="Path_12280" data-name="Path 12280" d="M252.484,144.514c.559-.554,1.529-.937,2.077-.58.426.278.476.924.478,1.482a18.529,18.529,0,0,1-2.171,7.794c-.546.979-1.091,1.791-.811,2.667a2.582,2.582,0,0,0,1.363,1.363c1.261.714,2.3,6.47,2.044,25.515a17.225,17.225,0,0,1-6.89-6.814c-1.48-2.8-1.138-4.364-3.786-12.493-.742-2.277-1.355-3.953-2.953-5.451a10.243,10.243,0,0,0-5.148-2.5,20.39,20.39,0,0,1,9.322-2.89c1.5-.048,2.836-.111,3.775-1.122,1.136-1.224,1.673-3.962,1.951-5.379A2.9,2.9,0,0,1,252.484,144.514Z" transform="translate(-211.18 -123.085)" fill="#fff"/>
    <path id="Path_12282" data-name="Path 12282" d="M346.284,306.837c.183.082-.061.784-.358,2.745-.072.474-.248,1.636-.328,2.745-.188,2.6.217,4-.209,4.148-.39.137-.717-1.044-2.029-1.462-.848-.271-1.368.014-1.641-.358-.117-.16-.258-.535.418-1.91a13.2,13.2,0,0,1,1.611-2.477C345.494,308.033,346.031,306.725,346.284,306.837Z" transform="translate(-284.498 -237)" fill="#fff"/>
    <path id="Path_12283" data-name="Path 12283" d="M327.129,337.29c.065.4,5.123-.807,6.573,1.013a3.685,3.685,0,0,0,1.715,1.24c.183.058.542.166.665.018.2-.243-.349-1.032-.612-1.36a5.586,5.586,0,0,0-3.3-1.8C329.511,335.9,327.083,337.006,327.129,337.29Z" transform="translate(-274.373 -257.569)" fill="#fff"/>
    <path id="Path_12284" data-name="Path 12284" d="M306.47,345.674a7.29,7.29,0,0,1,1.387-1.45,7.841,7.841,0,0,1,4.1-1.513c1.145-.134,5.648-.662,8.069,2.206.817.968,1.049,1.969,1.513,3.971a15.058,15.058,0,0,1,.063,7.376,9.066,9.066,0,0,1-1.7,3.909c-2.753,3.309-7.887,3.106-10.78,2.143a5.35,5.35,0,0,1-2.585-1.576c-.9-1.084-.984-2.285-1.072-4.413C305.141,348.526,305.52,346.995,306.47,345.674Z" transform="translate(-259.156 -261.983)" fill="#fff"/>
    <path id="Path_12285" data-name="Path 12285" d="M324.258,409.71c-1.363-.067-1.754,1.158-4.052,1.426-2.173.253-2.825-.725-3.827-.3-2.132.9-2.267,6.648-1.126,11.257.871,3.517,2.815,6.507,4.353,10.431.1.252.485,1.247,1.042,2.618.47,1.159.716,1.733.905,2.2A35.448,35.448,0,0,1,323.062,442a10.558,10.558,0,0,1,.733-3.794c.539-1.353,1.07-1.828,1.552-2.932a8.819,8.819,0,0,0,.508-4.992,9.174,9.174,0,0,0,3.254,4.752c1.033.742,1.717.827,2.945,1.592a11.82,11.82,0,0,1,3.8,3.893,84.409,84.409,0,0,0-2.979-15.619,62.458,62.458,0,0,0-3.124-7.93C326.65,410.313,325.111,409.751,324.258,409.71Z" transform="translate(-265.578 -308.881)" fill="#fff"/>
    <path id="Path_12286" data-name="Path 12286" d="M346.771,512.023a2.984,2.984,0,0,1,2.336.836,4.258,4.258,0,0,1,1.451,2.066,4.773,4.773,0,0,1,1.058-2.681c.25-.3,1.364-1.636,2.645-1.441.628.1,1.17.541,1.791,1.493,1.4,2.14,1.759,4.632,1.859,8.409.014.507.019.707-.024,4.673,0,0-.005.2-.262,9.731-.089,3.322-.1,4.161-.524,4.3-.611.2-1.891-1.084-4.6-6.25-1.309,5.553-2.2,6.654-2.77,6.624-.275-.014-.607-.3-1.684-3.593a50.889,50.889,0,0,1-2.133-7.523c-.211-1.185-.041-.538-.537-4.21-.173-1.281-.519-3.77-.752-6.84-.141-1.862-.182-3.162.6-4.359A2.6,2.6,0,0,1,346.771,512.023Z" transform="translate(-286.54 -379.505)" fill="#fff"/>
    <path id="Path_12287" data-name="Path 12287" d="M317.346,245.254c1.877-.653,2.778,1.122,5.631,1.024,3.2-.11,4.789-2.438,5.528-1.843.761.612-.926,3.072-2.559,7.986-2.019,6.075-1.1,7.3-3.174,9.931a34.031,34.031,0,0,0-3.583,4.4c-1.233,1.956-1.309,2.73-1.843,2.867-1.151.294-3.5-2.606-8.6-15.05a18.915,18.915,0,0,0,5.119-4.812C315.61,247.332,315.768,245.8,317.346,245.254Z" transform="translate(-261.529 -193.335)" fill="#fff"/>
    <path id="Path_12288" data-name="Path 12288" d="M400.521,314.039c.844-.021,1.848,3.1,3.857,9.347a40.528,40.528,0,0,1,1.639,5.951c.363,2.2.166,2.645.729,3.886.243.536,1.144,2.358,1.032,3.218a2.394,2.394,0,0,1-.476,1.153s-.03.037-.06.067c-.93.925-3.349.6-4.448-.692-1.384-1.631.455-3.471-.1-6.919-.642-4-3.549-4.223-4.349-8.2C397.6,318.112,399.315,314.069,400.521,314.039Z" transform="translate(-324.006 -242.036)" fill="#cc2936"/>
    <path id="Path_12289" data-name="Path 12289" d="M415.173,308.729c-.352.057-.311,2.5-.068,4.41a21.632,21.632,0,0,0,2.546,7.707,35.467,35.467,0,0,0-.773-7C416.43,311.736,415.575,308.664,415.173,308.729Z" transform="translate(-335.711 -238.325)" fill="#cc2936"/>
    <path id="Path_12290" data-name="Path 12290" d="M374.022,224.7c-1.062.332-.14,3.6-1.208,7.854-.917,3.649-2.226,3.755-2.567,6.041-.949,6.353,8.054,12.942,9.137,12.158.634-.458-1.139-3.655,0-6.721.252-.677.48-.9.68-.906.456-.006.726,1.16,1.435,2.945.512,1.29,1.444,3.386,1.662,3.323.236-.068-.821-2.79-1.208-6.645-.377-3.756.308-4.32-.244-8.167-.361-2.516-.592-3.988-1.759-5.361-.614-.722-.788-.6-3.475-2.8C374.642,224.927,374.386,224.591,374.022,224.7Z" transform="translate(-304.451 -179.603)" fill="#fff"/>
    <path id="Path_12291" data-name="Path 12291" d="M352.528,223.176c.777.37.581,2.292.565,2.442a4.481,4.481,0,0,1-.974,2.273,5.8,5.8,0,0,1-2.834,1.723,9.065,9.065,0,0,1-4.033.586c-.573-.051-2.973-.264-3.069-.981-.115-.854,3.236-.963,6.961-3.829C350.834,224.092,351.809,222.834,352.528,223.176Z" transform="translate(-284.889 -178.509)" fill="#fff"/>
    <path id="Path_12292" data-name="Path 12292" d="M350.261,212.251a9.716,9.716,0,0,1-6.413-4.139,17.875,17.875,0,0,1-1.918,9.565,43.293,43.293,0,0,1,8.331-5.426Z" transform="translate(-284.715 -168.024)" fill="#fff"/>
    <path id="Path_12293" data-name="Path 12293" d="M367.113,200.16c-.211-1.237-.515-3.151-.788-5.512-.516-4.464-.313-5.249-1.1-6.437-1.565-2.376-5.032-3.266-7.772-2.842-1.859.287-5.313,1.477-5.718,4.006-.335,2.094,1.609,3.909,1.986,4.245,1.983,1.769,3.935,1.274,6.916,2.26A15.614,15.614,0,0,1,367.113,200.16Z" transform="translate(-291.542 -152.062)" fill="#fff"/>
    <path id="Path_12294" data-name="Path 12294" d="M310.236,144.557c-.559-.554-1.529-.938-2.077-.58-.426.278-.476.924-.477,1.482a18.529,18.529,0,0,0,2.171,7.794c.546.979,1.091,1.791.811,2.667a2.583,2.583,0,0,1-1.363,1.363c-1.261.714-2.3,6.47-2.044,25.514a17.225,17.225,0,0,0,6.889-6.814c1.48-2.8,1.138-4.365,3.786-12.492.742-2.277,1.355-3.954,2.953-5.451a10.245,10.245,0,0,1,5.148-2.5,20.392,20.392,0,0,0-9.322-2.889c-1.5-.048-2.836-.112-3.775-1.122-1.136-1.224-1.673-3.963-1.951-5.379A2.9,2.9,0,0,0,310.236,144.557Z" transform="translate(-260.461 -123.115)" fill="#fff"/>
    <path id="Path_12281" data-name="Path 12281" d="M303.118,75.1c4.342.248,8.06,2.273,9.294,5.129.533,1.232,1.38,4.417.665,6.349-.017.045-.347.937-.181,1.028s.7-.862,1.028-.786c.539.124.772,2.518.181,4.6a8.946,8.946,0,0,1-2.9,4.353q.116,3.3.232,6.591a18.164,18.164,0,0,1,5.988.57c3.12.85,3.275,1.844,7.556,3.279a19.976,19.976,0,0,1,4.625,1.76,9.189,9.189,0,0,1,3.216,2.659c1.4,2.083.525,3.75.842,8.042.093,1.258.11.332,1.3,6.784,1.182,6.434,1.26,7.871,1.283,8.839.024.989,0,1.943.143,3.564a27.883,27.883,0,0,0,.713,4.562,25.2,25.2,0,0,0,1.711,4.42c1.915,4.56,1.859,10.212,1.813,14.856a5.594,5.594,0,0,0,.7,3.4c1.072,1.616,2.55,1.255,3.6,3,.551.919.154,1.042,1,3a13.137,13.137,0,0,0,1.3,2.5c.871,1.264,1.622,1.775,1.434,2.335a1.1,1.1,0,0,1-.86.615c-1.625.277-3.108-2.869-3.851-2.54-.258.114-.221.553-.287,1.352a11.819,11.819,0,0,1-1.311,4.671,5.324,5.324,0,0,1-2.253,2.212c-.673.325-1.758.645-1.967.328-.282-.428,1.39-1.475,2.254-3.728a7.7,7.7,0,0,0,.491-2.335,11.447,11.447,0,0,1-4.694,6.359c-.443.127-1.176.3-1.336.037s.326-.822.5-1.029a35.394,35.394,0,0,0,3.36-5.449,24.129,24.129,0,0,1-4.75,5.587c-.48.372-1,.691-1.262.519-.324-.209-.123-1.057-.074-1.262a4.086,4.086,0,0,1,.928-1.744,20.78,20.78,0,0,0,2.524-3.414,24.958,24.958,0,0,1-4.49,3.637c-.955.522-1.144.38-1.188.334-.128-.134.017-.471.111-.668.744-1.558,2.258-2.672,2.961-4.028a6.979,6.979,0,0,0,.384-4.321c-.256-1.28-.8-2.137-.365-3.066a2.429,2.429,0,0,1,1.211-1.11,64.815,64.815,0,0,0-2.118-6.456c-1.228-3.173-1.588-3.368-3.026-7-1.524-3.853-1.448-4.465-2.755-7.124-1.208-2.457-1.49-2.376-2.327-4.31-1.7-3.923-1.511-6.507-2.093-6.533-.873-.04-1.8,5.677-2.062,7.317a46.843,46.843,0,0,0-.7,12.33c.162,1.838.429,3.457.681,4.984.52,3.143,1.082,5.5,1.317,6.457.322,1.306.618,2.367.81,3.054.229.816.573,2.01,1.136,3.8,1.215,3.868,1.163,3.262,1.672,5.079a60.015,60.015,0,0,1,1.335,5.92c.085.483.177.945.225,1.22.819,4.622.939,9.716,1.648,16.28.249,2.3.36,2.847.649,5.735,0,0,.311,3.11.508,5.864.361,5.047.07,11.036-.545,22.806a75.687,75.687,0,0,0,0,7.948,29.547,29.547,0,0,0,.414,4.522c.382,1.792,1.617,5.427,6.689,9.135a2.266,2.266,0,0,1,.224,1.9c-.371.788-1.42,1.007-2.207,1.128a71.19,71.19,0,0,1-10.743.294,1.945,1.945,0,0,1-1.423-.834,1.917,1.917,0,0,1-.245-1.472l.343-4.807a5.867,5.867,0,0,1-.834-1.668,5.331,5.331,0,0,1-.245-1.276,4.729,4.729,0,0,1,1.03-2.992c-.06-1.254-.17-2.564-.343-3.924a50.329,50.329,0,0,0-3.522-13.072,47.992,47.992,0,0,1-3.43-15.537,33.368,33.368,0,0,0-.807-7.062,34.873,34.873,0,0,0-2.421-6.861c-3.656-8.281-5.485-12.421-6.289-15.077-.3-1-.508-1.8-.647-2.377,0,0-.08-.333-.157-.681-.247-1.117-.689-4.053-1.161-7.984" transform="translate(-257.596 -75.085)" fill="none" stroke="#fff" stroke-miterlimit="10" stroke-width="0.5"/>
    <path id="Path_12267" data-name="Path 12267" d="M197.583,75.055c-4.342.247-8.06,2.273-9.294,5.128-.533,1.233-1.379,4.417-.665,6.349.017.045.348.936.181,1.028s-.7-.862-1.028-.786c-.54.124-.773,2.517-.181,4.6a8.943,8.943,0,0,0,2.9,4.354q-.116,3.3-.232,6.591a18.164,18.164,0,0,0-5.987.57c-3.12.85-3.274,1.844-7.556,3.279a19.965,19.965,0,0,0-4.625,1.76,9.188,9.188,0,0,0-3.216,2.659c-1.4,2.083-.525,3.751-.842,8.042-.093,1.258-.11.332-1.3,6.784-1.182,6.433-1.26,7.871-1.283,8.839-.024.99,0,1.943-.143,3.564a27.887,27.887,0,0,1-.713,4.562,25.17,25.17,0,0,1-1.711,4.419c-1.915,4.561-1.859,10.212-1.813,14.857a5.6,5.6,0,0,1-.7,3.4c-1.072,1.617-2.55,1.255-3.6,3-.551.918-.154,1.042-1,3a13.124,13.124,0,0,1-1.3,2.5c-.871,1.264-1.622,1.775-1.434,2.336a1.1,1.1,0,0,0,.86.615c1.625.277,3.107-2.869,3.851-2.54.257.114.221.553.287,1.352a11.811,11.811,0,0,0,1.311,4.671,5.329,5.329,0,0,0,2.254,2.212c.672.325,1.757.645,1.966.328.282-.429-1.39-1.475-2.253-3.728a7.693,7.693,0,0,1-.492-2.335,11.446,11.446,0,0,0,4.694,6.359c.443.126,1.176.3,1.336.037s-.326-.822-.5-1.029a35.383,35.383,0,0,1-3.36-5.449,24.129,24.129,0,0,0,4.75,5.587c.48.372,1,.691,1.262.52.324-.209.123-1.057.074-1.262a4.088,4.088,0,0,0-.928-1.744,20.806,20.806,0,0,1-2.524-3.414,24.969,24.969,0,0,0,4.49,3.637c.955.522,1.144.38,1.188.334.128-.134-.017-.47-.111-.668-.744-1.559-2.258-2.672-2.961-4.029a6.978,6.978,0,0,1-.384-4.32c.256-1.28.8-2.137.365-3.066a2.433,2.433,0,0,0-1.211-1.11,64.871,64.871,0,0,1,2.119-6.456c1.228-3.174,1.588-3.368,3.026-7,1.524-3.853,1.448-4.465,2.755-7.124,1.208-2.457,1.49-2.376,2.327-4.31,1.7-3.923,1.512-6.507,2.094-6.533.872-.04,1.8,5.677,2.061,7.317a46.823,46.823,0,0,1,.7,12.33c-.161,1.838-.429,3.458-.682,4.984-.52,3.143-1.082,5.5-1.317,6.457-.322,1.306-.618,2.366-.81,3.054-.228.816-.573,2.01-1.136,3.8-1.215,3.868-1.163,3.262-1.672,5.079a60.129,60.129,0,0,0-1.335,5.92c-.085.483-.177.946-.225,1.22-.82,4.622-.939,9.716-1.648,16.281-.248,2.3-.36,2.847-.649,5.734,0,0-.311,3.11-.508,5.864-.361,5.047-.07,11.036.545,22.807a75.7,75.7,0,0,1,0,7.948,29.517,29.517,0,0,1-.414,4.522c-.382,1.792-1.616,5.427-6.689,9.134a2.266,2.266,0,0,0-.224,1.9c.371.788,1.42,1.007,2.208,1.128a71.176,71.176,0,0,0,10.743.294,1.944,1.944,0,0,0,1.423-.834,1.915,1.915,0,0,0,.245-1.471l-.343-4.808a5.867,5.867,0,0,0,.834-1.668,5.315,5.315,0,0,0,.245-1.275,4.727,4.727,0,0,0-1.03-2.992c.06-1.254.17-2.565.343-3.925a50.324,50.324,0,0,1,3.522-13.072,47.991,47.991,0,0,0,3.43-15.537,33.325,33.325,0,0,1,.807-7.062,34.843,34.843,0,0,1,2.421-6.861c3.656-8.281,5.484-12.422,6.289-15.077.3-1,.508-1.8.647-2.377,0,0,.08-.333.156-.681.247-1.117.689-4.053,1.161-7.984" transform="translate(-152.027 -75.055)" fill="none" stroke="#fff" stroke-miterlimit="10" stroke-width="0.5"/>
  </g>
</svg>
