<svg xmlns="http://www.w3.org/2000/svg" width="90.921" height="186.555" viewBox="0 0 90.921 186.555">
  <g id="Group_54469" data-name="Group 54469" transform="translate(0.141 0.15)">
    <path id="Path_12229" data-name="Path 12229" d="M206.8,153.53c-4.379.248-8.128,2.273-9.372,5.129-.537,1.233-1.391,4.418-.671,6.35.017.045.35.937.183,1.028s-.7-.862-1.036-.786c-.544.124-.779,2.518-.183,4.6a8.937,8.937,0,0,0,2.927,4.354l.122,7.741c-5.225,1.371-9.743,2.755-13.474,3.991-2.652.879-5.051,1.731-6.4,4-.693,1.168-.86,2.394-1.193,4.845-.426,3.134-.029,4.291-.708,7.1A21.348,21.348,0,0,1,176,204.908c-1.478,3.9-.44,5.9-1.122,13.2a14.114,14.114,0,0,1-.75,3.841,40.19,40.19,0,0,1-2.092,4.026,21.256,21.256,0,0,0-1.471,4.373,67.592,67.592,0,0,0-1.67,12.75c-.057,1.83-.03,3.337-1.121,4.41s-2.394.659-3.209,1.938c-.788,1.237-.068,1.914-.7,3.6-.9,2.4-3.073,2.92-2.79,4.29a1.51,1.51,0,0,0,.977,1.107c.168.049.792.186,1.953-.83,1.89-1.655,2.234-3.8,2.511-3.736s-.2,2.117,0,4.727a16.733,16.733,0,0,0,.57,3.252,8.9,8.9,0,0,0,.951,2.31c.678,1.152,1.983,2.768,2.466,2.545.845-.389-.952-6.35-.9-6.363s2.04,5.246,3.581,6.488c.178.144.588.474.983.354.461-.139.6-.789.626-.886-1.737-4.19-2.237-5.4-2.234-5.406a10.21,10.21,0,0,0,3.127,4.254c.907.675,1.3.642,1.519.532.377-.193.533-.8.447-1.506l-3.037-4.342c2.31,2.644,3.177,3.011,3.529,2.814.329-.185.42-.981.157-1.5-.23-.454-.593-.425-1.093-1.037a5.168,5.168,0,0,1-.58-1.05,9.606,9.606,0,0,1-.7-1.731,5.925,5.925,0,0,1-.113-1.971c.22-4.1.364-4.739-.117-5.553a5.916,5.916,0,0,1-.674-1.234h0a14.951,14.951,0,0,1-.237-2.431c-.078-2.7,3.135-4.306,5.194-8.462a20.075,20.075,0,0,0,1.58-5.252c.835-3.94.295-4.994,1.393-7.693.853-2.1,1.336-1.847,2.346-4.311,1.289-3.143,1.146-5.106,1.739-5.175.955-.11,2.259,5.169,2.45,5.959a50.324,50.324,0,0,1,1.308,12.055,29.731,29.731,0,0,1-.333,6.2,46.01,46.01,0,0,1-1.923,6.443c-.133.407-.236.713-.323.964,0,0-.194.566-.393,1.123-.5,1.386-1.608,3.847-1.608,3.847a33.541,33.541,0,0,0-1.686,5.08,59.7,59.7,0,0,0-1.346,5.921c-.187,1.055-1.006,4.539-1.441,14.586a90.166,90.166,0,0,1-.812,9.6c-.362,2.416-.6,3.685-.8,4.922-.845,5.094-.254,7.551.55,22.811a75.187,75.187,0,0,1,0,7.95,29.334,29.334,0,0,1-.418,4.523c-.385,1.793-1.63,5.428-6.745,9.136a2.251,2.251,0,0,0-.226,1.9c.374.787,1.432,1.007,2.226,1.128a72.313,72.313,0,0,0,10.833.295,1.965,1.965,0,0,0,1.435-.834,1.9,1.9,0,0,0,.247-1.472q-.173-2.4-.346-4.808a5.844,5.844,0,0,0,.841-1.668,5.278,5.278,0,0,0,.248-1.276,4.707,4.707,0,0,0-1.039-2.993c.06-1.254.171-2.565.346-3.925a50.013,50.013,0,0,1,3.552-13.075,47.671,47.671,0,0,0,3.459-15.54,33.073,33.073,0,0,1,.814-7.064,34.7,34.7,0,0,1,2.441-6.862c3.687-8.283,5.531-12.424,6.341-15.08.3-1,.513-1.8.652-2.378,0,0,.08-.333.158-.681.249-1.117.694-4.054,1.171-7.986" transform="translate(-161.047 -153.53)" fill="none" stroke="#fff" stroke-miterlimit="10" stroke-width="0.3"/>
    <path id="Path_12230" data-name="Path 12230" d="M261.061,232c.388-.359.212-1.132.137-1.463-.546-2.423-.938-4.885-1.633-7.27-.5-1.729-.607-2.158-.743-2.146-.391.034-.4,3.638-.331,6.949-4.391,1.281-6.872,1.955-8.212,2.269-.3.069-1.17.27-1.16.485.009.2.749.309,1.07.359,3.327.519,6.7.627,10.052.992A1.047,1.047,0,0,0,261.061,232Z" transform="translate(-220.542 -198.981)" fill="#fff" stroke="rgba(0,0,0,0)" stroke-width="0.3"/>
    <path id="Path_12231" data-name="Path 12231" d="M223.832,253.666c.176.428-2.661,1.175-3.609,3.914a18.321,18.321,0,0,0-.565,3.131c-.232,1.679-.226,2.291-.3,2.783-.558,3.506-6.254,6.535-7.479,5.479-.512-.442.087-1.312.609-4.783.592-3.941.051-4.359.565-5.7C214.822,253.881,223.533,252.938,223.832,253.666Z" transform="translate(-195.251 -221.01)" fill="#fff" stroke="rgba(0,0,0,0)" stroke-width="0.3"/>
    <path id="Path_12232" data-name="Path 12232" d="M215.228,292.81c-.734-.147-1.119.976-3.641,2.994-2.894,2.315-3.472,1.7-4.531,2.913-2.257,2.577-1.158,7.848,1.133,18.285.069.313.126.568.162.728a17.489,17.489,0,0,0,1.618-1.214,20.231,20.231,0,0,0,6.311-10.6C217.773,300.011,216.96,293.157,215.228,292.81Z" transform="translate(-191.29 -247.609)" fill="#fff" stroke="rgba(0,0,0,0)" stroke-width="0.3"/>
    <path id="Path_12233" data-name="Path 12233" d="M192.539,355.371c.266-.005.321,1.157.976,2.755a18.669,18.669,0,0,0,1.722,2.927c1.351,2.673-1.261,6.744-3.493,10.222-1.422,2.217-2.482,3.3-4.313,6.6-.559,1.005-.987,1.85-1.263,2.411.017-.587.049-1.395.115-2.354a68.542,68.542,0,0,1,1.058-7.864c.746-4.068,1.138-6.129,2.042-7.461a16.609,16.609,0,0,0,1.722-2.468C192.353,357.635,192.169,355.378,192.539,355.371Z" transform="translate(-177.94 -289.88)" fill="#cc2936" stroke="rgba(0,0,0,0)" stroke-width="0.3"/>
    <path id="Path_12234" data-name="Path 12234" d="M197.969,377.669c-.638-.276-2.522,3.625-6.685,10.2-3.313,5.228-6.528,9.714-5.623,10.593.4.388,1.21-.312,2.7.184,1.42.474,2,1.554,2.39,1.348s-.212-1.295-.123-2.635c.143-2.143,2.067-3.479,4.167-6.374a6.227,6.227,0,0,0,.78-1.411,6.132,6.132,0,0,0,.346-1.27c.326-1.931,1.08-3.488,1.7-6.844C198.06,379.022,198.283,377.8,197.969,377.669Z" transform="translate(-177.495 -304.923)" fill="#cc2936" stroke="rgba(0,0,0,0)" stroke-width="0.3"/>
    <path id="Path_12235" data-name="Path 12235" d="M243.032,254.983a6.557,6.557,0,0,0-3.139,2.149c-.313.376-1.408,1.772-1.762,5.142-.26,2.475-.633,6.031,1.545,9.537.436.7,2.494,4.013,6.2,4.9.179.043.38.078.773.145,4.957.849,9.019,1.545,10.522-.29a3.188,3.188,0,0,0,.6-2.3c-.055-1.55-.138-4.171-.189-7.457-.085-5.5.017-6.543-.9-7.854-1.561-2.242-4.5-2.991-7.137-3.663a18.061,18.061,0,0,0-3.923-.517A7.756,7.756,0,0,0,243.032,254.983Z" transform="translate(-213.01 -221.914)" fill="#fff" stroke="rgba(0,0,0,0)" stroke-width="0.3"/>
    <path id="Path_12236" data-name="Path 12236" d="M245.355,314.731c.29-.078.491.666,1.58,1.624,1.066.938,1.517.791,1.931,1.316.852,1.083-.225,2.777-1.1,5.836-1.084,3.8-.748,5.85-1.229,5.88-.625.039-1.629-3.387-1.624-6.67,0-1.113.118-.987.176-2.9C245.187,316.651,244.911,314.851,245.355,314.731Z" transform="translate(-217.68 -262.394)" fill="#fff" stroke="rgba(0,0,0,0)" stroke-width="0.3"/>
    <path id="Path_12237" data-name="Path 12237" d="M255.706,325.808c.948-.3,2.222.713,2.834,1.667a4.749,4.749,0,0,1,.584,3c-.277,4.53-.92,5.7-1,8.334-.079,2.586.5,1.911.667,6.251.156,4.038-.377,4.4.25,6.334.267.823.666,1.685.25,2.417-.541.953-2.072,1-2.334,1a4.2,4.2,0,0,1-2.834-1.167c-1.36-1.322-1.022-3.1-1.084-6.918-.1-6.087-1.032-6.2-.5-10,.258-1.846.381-1.118,1.333-5.584C254.64,327.546,254.766,326.107,255.706,325.808Z" transform="translate(-222.726 -269.886)" fill="#fff" stroke="rgba(0,0,0,0)" stroke-width="0.3"/>
    <path id="Path_12238" data-name="Path 12238" d="M287.168,457.347c-.345-.661-.935-.765-1.927-1.356-1.965-1.171-2.286-2.334-2.759-2.188-.846.262-.142,4.093.119,8.3.474,7.635-.836,11.293-.143,11.465,1.068.265,2.819-8.74,4.662-14.01A2.848,2.848,0,0,0,287.168,457.347Z" transform="translate(-242.778 -356.338)" fill="#fff" stroke="rgba(0,0,0,0)" stroke-width="0.3"/>
    <path id="Path_12239" data-name="Path 12239" d="M260.96,420.917c-.172.154.548,1.035,1.307,2.52a21.515,21.515,0,0,1,1.773,5.506A71.093,71.093,0,0,1,266,441.729a67.253,67.253,0,0,1-.466,12.319c-.587,4.473-1.467,7.612-1.307,7.653s1.494-3.507,2.333-7.839a53.751,53.751,0,0,0,.467-16.239c-.341-2.777-.542-2.567-.933-5.88-.5-4.211-.311-5.72-1.493-7.653C263.313,421.987,261.208,420.7,260.96,420.917Z" transform="translate(-228.504 -334.23)" fill="#fff" stroke="rgba(0,0,0,0)" stroke-width="0.3"/>
    <path id="Path_12240" data-name="Path 12240" d="M239.235,426.386c-.286.052.609,2.779-.437,5.434-1.225,3.108-4.551,4.7-7.12,5.558a51.719,51.719,0,0,0-2.561,25.168c.835,1.914,1.6,2.4,2.186,2.436.908.054,1.283-.984,2.5-1a3.53,3.53,0,0,1,2.248,1.062c1.115.974.972,1.753,1.936,2.186a2.492,2.492,0,0,0,1.811.062c1.2-.433,1.724-1.842,2-2.748a41.615,41.615,0,0,0,1.5-12.428c-.389-7.708-.584-11.562-1.436-16.238C240.841,430.307,239.58,426.323,239.235,426.386Z" transform="translate(-206.668 -337.944)" fill="#fff" stroke="rgba(0,0,0,0)" stroke-width="0.3"/>
    <path id="Path_12241" data-name="Path 12241" d="M223.614,552.5a43.6,43.6,0,0,1,1.622,12.5c-.087,4.483-.84,5.765-1.717,13.453-.867,7.594-.769,11.927-1.05,11.926-.4,0-.645-8.851-.858-16.6a89.606,89.606,0,0,1,0-9.255A63.338,63.338,0,0,1,223.614,552.5Z" transform="translate(-201.869 -423.347)" fill="#fff" stroke="rgba(0,0,0,0)" stroke-width="0.3"/>
    <path id="Path_12242" data-name="Path 12242" d="M241.465,624.535c-.743.034-.881,16.1-.242,16.116.3.009-.375-3.559,1.5-8.082.821-1.981,2.2-4.322,1.355-5.275-.3-.342-.669-.251-1.307-.775C241.707,625.646,241.662,624.526,241.465,624.535Z" transform="translate(-214.91 -471.788)" fill="#fff" stroke="rgba(0,0,0,0)" stroke-width="0.3"/>
    <path id="Path_12243" data-name="Path 12243" d="M251.073,559.091a13.731,13.731,0,0,0-4.88,5.448c-.54,1.123-.84,3.129-1.42,7.1-.773,5.293-.687,6.683-.055,8.111a8.3,8.3,0,0,0,2.262,2.96,48.867,48.867,0,0,0,2.75-8.486,27.786,27.786,0,0,0,.682-3.714c.355-3.544-.307-5.255.188-8.929A23.349,23.349,0,0,1,251.073,559.091Z" transform="translate(-217.216 -427.489)" fill="#fff" stroke="rgba(0,0,0,0)" stroke-width="0.3"/>
    <path id="Path_12244" data-name="Path 12244" d="M283.706,330.3c-.478-.393-1.2-.242-1.964-.081a5.68,5.68,0,0,0-2.453,1.115c-1.363,1.083-2.839,3.307-2.162,4.417.305.5,2.1.41,5.679.228a1.538,1.538,0,0,0,.994-.322c.385-.341.4-.838.313-2.957C284.036,330.845,284,330.54,283.706,330.3Z" transform="translate(-239.328 -272.722)" fill="#fff" stroke="rgba(0,0,0,0)" stroke-width="0.3"/>
    <path id="Path_12245" data-name="Path 12245" d="M277.761,350.707a2.119,2.119,0,0,0-1.291.541,1.827,1.827,0,0,0-.4.64,7.715,7.715,0,0,0-.282,2.983c.007.937.016,1.411.266,1.664a1.489,1.489,0,0,0,1.082.333q1.993.022,3.987-.021a2.5,2.5,0,0,0,2.05-.853c.071-.115.129-.246.208-1.374a24.176,24.176,0,0,0,0-2.664,1.511,1.511,0,0,0-.25-1,1.4,1.4,0,0,0-1.027-.413A37.339,37.339,0,0,0,277.761,350.707Z" transform="translate(-238.537 -286.554)" fill="#fff" stroke="rgba(0,0,0,0)" stroke-width="0.3"/>
    <path id="Path_12246" data-name="Path 12246" d="M277.33,371.718a2.122,2.122,0,0,0-1.29.541,1.834,1.834,0,0,0-.4.639,7.712,7.712,0,0,0-.282,2.984c.007.937.015,1.411.266,1.664a1.487,1.487,0,0,0,1.082.333q1.992.021,3.987-.022a2.5,2.5,0,0,0,2.05-.853c.071-.115.128-.246.208-1.374a23.922,23.922,0,0,0,0-2.664,1.51,1.51,0,0,0-.25-1,1.4,1.4,0,0,0-1.027-.413A37.326,37.326,0,0,0,277.33,371.718Z" transform="translate(-238.246 -300.741)" fill="#fff" stroke="rgba(0,0,0,0)" stroke-width="0.3"/>
    <path id="Path_12247" data-name="Path 12247" d="M276.185,393.516a2.04,2.04,0,0,0-.946.453,1.992,1.992,0,0,0-.521.782,5.312,5.312,0,0,0,0,3.059c.186,1.008.358,1.584.358,1.584,1.15,3.851,1.725,5.776,2.776,7.357.532.8,2.22,3.333,3.372,2.972.642-.2.766-1.233,1.068-3.106q.1-2.662.2-5.323c.072-2.711.1-4.853.123-6.227.007-.374.022-1.181-.48-1.55a1.517,1.517,0,0,0-.933-.192c-1.042-.022-1.563-.033-2.126-.014A14.283,14.283,0,0,0,276.185,393.516Z" transform="translate(-237.678 -315.466)" fill="#fff" stroke="rgba(0,0,0,0)" stroke-width="0.3"/>
    <path id="Path_12248" data-name="Path 12248" d="M300.244,153.53c4.4.25,8.159,2.288,9.4,5.149.533,1.226,1.392,4.416.671,6.35-.017.045-.35.937-.183,1.028s.7-.862,1.037-.786c.544.124.779,2.518.183,4.6a8.935,8.935,0,0,1-2.926,4.354q-.061,3.87-.122,7.741c5.225,1.371,9.743,2.755,13.474,3.992,2.652.879,5.051,1.731,6.4,4,.693,1.168.86,2.394,1.193,4.845.426,3.134.03,4.291.708,7.1a21.4,21.4,0,0,0,1.007,3.032c1.478,3.9.44,5.905,1.122,13.2a14.133,14.133,0,0,0,.751,3.841,40.048,40.048,0,0,0,2.092,4.025,21.254,21.254,0,0,1,1.471,4.373,67.59,67.59,0,0,1,1.67,12.75c.057,1.83.03,3.337,1.12,4.41s2.394.659,3.209,1.938c.788,1.237.068,1.914.7,3.6.9,2.4,3.073,2.92,2.79,4.29a1.51,1.51,0,0,1-.976,1.107c-.168.049-.792.186-1.953-.83-1.89-1.655-2.234-3.8-2.512-3.737s.2,2.117,0,4.727a16.755,16.755,0,0,1-.57,3.252,8.908,8.908,0,0,1-.951,2.31c-.678,1.151-1.983,2.768-2.466,2.545-.845-.389.952-6.35.9-6.363s-2.04,5.246-3.581,6.488c-.178.143-.588.474-.983.354-.461-.14-.6-.789-.625-.886,1.736-4.19,2.237-5.4,2.233-5.406a10.207,10.207,0,0,1-3.127,4.254c-.907.674-1.3.642-1.519.531-.377-.193-.532-.8-.447-1.506l3.038-4.342c-2.31,2.644-3.177,3.011-3.529,2.814-.329-.184-.42-.981-.156-1.5.23-.453.593-.425,1.093-1.037a5.156,5.156,0,0,0,.58-1.049,9.627,9.627,0,0,0,.7-1.732,5.913,5.913,0,0,0,.113-1.97c-.22-4.1-.364-4.739.117-5.553a5.934,5.934,0,0,0,.674-1.234h0a15,15,0,0,0,.237-2.431c.078-2.7-3.136-4.306-5.194-8.462a20.083,20.083,0,0,1-1.58-5.252c-.835-3.94-.3-4.995-1.393-7.693-.853-2.1-1.336-1.847-2.346-4.311-1.288-3.143-1.146-5.107-1.739-5.175-.955-.11-2.259,5.169-2.45,5.959a50.31,50.31,0,0,0-1.308,12.055,29.708,29.708,0,0,0,.333,6.2,46.019,46.019,0,0,0,1.923,6.443c.133.407.236.712.323.963,0,0,.194.566.393,1.124.5,1.385,1.608,3.847,1.608,3.847a33.49,33.49,0,0,1,1.686,5.08,59.715,59.715,0,0,1,1.346,5.922c.187,1.054,1.006,4.538,1.441,14.585a90.08,90.08,0,0,0,.812,9.6c.362,2.416.6,3.685.8,4.922.845,5.094.254,7.551-.55,22.811a75.226,75.226,0,0,0,0,7.95,29.3,29.3,0,0,0,.418,4.523c.385,1.793,1.63,5.428,6.745,9.136a2.249,2.249,0,0,1,.226,1.9c-.374.788-1.432,1.007-2.226,1.129a72.344,72.344,0,0,1-10.833.294,1.964,1.964,0,0,1-1.434-.834,1.9,1.9,0,0,1-.248-1.472q.173-2.4.347-4.808a5.847,5.847,0,0,1-.841-1.668,5.3,5.3,0,0,1-.247-1.276,4.7,4.7,0,0,1,1.039-2.993c-.06-1.254-.171-2.565-.347-3.925a50.021,50.021,0,0,0-3.551-13.075A47.662,47.662,0,0,1,312,294.113a33.1,33.1,0,0,0-.814-7.064,34.678,34.678,0,0,0-2.442-6.862c-3.687-8.283-5.53-12.424-6.341-15.08-.3-1-.513-1.8-.652-2.378,0,0-.081-.336-.158-.681-.248-1.115-.656-4.053-1.045-7.993" transform="translate(-255.392 -153.53)" fill="none" stroke="#fff" stroke-miterlimit="10" stroke-width="0.3"/>
    <path id="Path_12249" data-name="Path 12249" d="M315.013,232.056c-.388-.359-.212-1.132-.137-1.463.546-2.423.938-4.886,1.633-7.27.5-1.729.607-2.157.743-2.146.391.034.4,3.638.331,6.949,4.391,1.281,6.872,1.955,8.212,2.269.3.069,1.17.27,1.16.485-.009.2-.749.309-1.07.36-3.327.519-6.705.627-10.052.992A1.047,1.047,0,0,1,315.013,232.056Z" transform="translate(-264.892 -199.021)" fill="#fff" stroke="rgba(0,0,0,0)" stroke-width="0.3"/>
    <path id="Path_12250" data-name="Path 12250" d="M352.292,253.727c-.176.428,2.661,1.175,3.609,3.913a18.286,18.286,0,0,1,.565,3.131c.232,1.679.226,2.291.3,2.783.558,3.507,6.254,6.535,7.479,5.479.512-.441-.087-1.312-.609-4.783-.592-3.941-.051-4.359-.565-5.7C361.3,253.942,352.591,253,352.292,253.727Z" transform="translate(-290.234 -221.051)" fill="#fff" stroke="rgba(0,0,0,0)" stroke-width="0.3"/>
    <path id="Path_12251" data-name="Path 12251" d="M362.781,292.871c.734-.147,1.12.976,3.641,2.993,2.894,2.315,3.472,1.7,4.531,2.913,2.257,2.578,1.158,7.848-1.133,18.285-.069.313-.126.569-.162.728a17.535,17.535,0,0,1-1.618-1.214,20.232,20.232,0,0,1-6.311-10.6C360.237,300.072,361.049,293.218,362.781,292.871Z" transform="translate(-296.08 -247.65)" fill="#fff" stroke="rgba(0,0,0,0)" stroke-width="0.3"/>
    <path id="Path_12252" data-name="Path 12252" d="M389.172,355.431c-.266,0-.321,1.157-.976,2.755a18.672,18.672,0,0,1-1.722,2.927c-1.351,2.673,1.261,6.744,3.493,10.222,1.422,2.217,2.482,3.3,4.313,6.6.559,1.005.987,1.85,1.263,2.411-.017-.587-.049-1.395-.115-2.353a68.612,68.612,0,0,0-1.057-7.864c-.746-4.068-1.138-6.129-2.042-7.462a16.6,16.6,0,0,1-1.722-2.468C389.358,357.695,389.542,355.438,389.172,355.431Z" transform="translate(-313.131 -289.92)" fill="#cc2936" stroke="rgba(0,0,0,0)" stroke-width="0.3"/>
    <path id="Path_12253" data-name="Path 12253" d="M377.233,377.729c.638-.276,2.522,3.625,6.685,10.2,3.313,5.228,6.528,9.714,5.623,10.592-.4.388-1.21-.312-2.7.184-1.42.474-2,1.554-2.39,1.348s.212-1.3.122-2.635c-.143-2.143-2.067-3.479-4.167-6.374a6.229,6.229,0,0,1-.78-1.411,6.155,6.155,0,0,1-.347-1.27c-.325-1.931-1.079-3.488-1.695-6.844C377.141,379.082,376.918,377.865,377.233,377.729Z" transform="translate(-307.067 -304.963)" fill="#cc2936" stroke="rgba(0,0,0,0)" stroke-width="0.3"/>
    <path id="Path_12254" data-name="Path 12254" d="M317.291,255.043a6.557,6.557,0,0,1,3.139,2.149c.313.376,1.408,1.772,1.763,5.143.26,2.475.633,6.031-1.545,9.536-.436.7-2.494,4.013-6.2,4.9-.179.043-.38.078-.773.145-4.957.849-9.019,1.545-10.522-.291a3.188,3.188,0,0,1-.6-2.3c.055-1.55.138-4.171.189-7.457.085-5.5-.017-6.542.9-7.854,1.561-2.242,4.5-2.991,7.137-3.662a18.074,18.074,0,0,1,3.923-.517A7.756,7.756,0,0,1,317.291,255.043Z" transform="translate(-256.674 -221.954)" fill="#fff" stroke="rgba(0,0,0,0)" stroke-width="0.3"/>
    <path id="Path_12255" data-name="Path 12255" d="M346.991,314.792c-.29-.078-.491.666-1.58,1.623-1.066.938-1.517.791-1.931,1.317-.852,1.083.225,2.777,1.1,5.836,1.084,3.8.748,5.85,1.229,5.88.625.039,1.629-3.387,1.624-6.67,0-1.113-.118-.987-.176-2.9C347.158,316.711,347.435,314.911,346.991,314.792Z" transform="translate(-284.026 -262.434)" fill="#fff" stroke="rgba(0,0,0,0)" stroke-width="0.3"/>
    <path id="Path_12256" data-name="Path 12256" d="M330.821,325.868c-.948-.3-2.222.712-2.834,1.667a4.748,4.748,0,0,0-.583,3c.277,4.53.92,5.7,1,8.334.079,2.586-.5,1.911-.667,6.251-.156,4.037.377,4.4-.25,6.334-.267.823-.665,1.685-.25,2.417.541.954,2.072,1,2.334,1A4.2,4.2,0,0,0,332.4,353.7c1.359-1.322,1.022-3.1,1.083-6.918.1-6.087,1.032-6.2.5-10-.259-1.846-.381-1.119-1.334-5.584C331.888,327.607,331.762,326.168,330.821,325.868Z" transform="translate(-273.162 -269.927)" fill="#fff" stroke="rgba(0,0,0,0)" stroke-width="0.3"/>
    <path id="Path_12257" data-name="Path 12257" d="M303.035,457.408c.345-.661.935-.765,1.926-1.356,1.965-1.171,2.286-2.335,2.759-2.188.846.261.142,4.093-.119,8.3-.474,7.635.836,11.292.142,11.464-1.068.265-2.819-8.739-4.662-14.01A2.848,2.848,0,0,1,303.035,457.408Z" transform="translate(-256.786 -356.379)" fill="#fff" stroke="rgba(0,0,0,0)" stroke-width="0.3"/>
    <path id="Path_12258" data-name="Path 12258" d="M326.8,420.978c.172.154-.549,1.035-1.306,2.52A21.494,21.494,0,0,0,323.725,429a71.125,71.125,0,0,0-1.96,12.786,67.278,67.278,0,0,0,.467,12.319c.587,4.473,1.467,7.613,1.307,7.653s-1.494-3.507-2.333-7.84a53.766,53.766,0,0,1-.466-16.239c.341-2.777.542-2.566.933-5.88.5-4.211.311-5.72,1.493-7.653C324.453,422.047,326.557,420.757,326.8,420.978Z" transform="translate(-268.622 -334.271)" fill="#fff" stroke="rgba(0,0,0,0)" stroke-width="0.3"/>
    <path id="Path_12259" data-name="Path 12259" d="M331.579,426.446c.286.053-.609,2.779.437,5.434,1.224,3.108,4.551,4.7,7.12,5.558a51.72,51.72,0,0,1,2.561,25.169c-.835,1.914-1.6,2.4-2.186,2.435-.908.054-1.283-.984-2.5-1a3.528,3.528,0,0,0-2.248,1.061c-1.116.974-.972,1.754-1.936,2.186a2.492,2.492,0,0,1-1.811.063c-1.2-.433-1.724-1.842-2-2.748a41.621,41.621,0,0,1-1.5-12.428c.389-7.708.584-11.562,1.436-16.238C329.973,430.367,331.234,426.384,331.579,426.446Z" transform="translate(-273.507 -337.984)" fill="#fff" stroke="rgba(0,0,0,0)" stroke-width="0.3"/>
    <path id="Path_12260" data-name="Path 12260" d="M369.8,552.562a43.6,43.6,0,0,0-1.622,12.5c.087,4.483.84,5.766,1.717,13.453.867,7.594.769,11.927,1.049,11.926.4,0,.645-8.851.859-16.6a89.691,89.691,0,0,0,0-9.255A63.328,63.328,0,0,0,369.8,552.562Z" transform="translate(-300.902 -423.388)" fill="#fff" stroke="rgba(0,0,0,0)" stroke-width="0.3"/>
    <path id="Path_12261" data-name="Path 12261" d="M352.382,624.595c.743.034.881,16.1.242,16.116-.3.008.375-3.559-1.5-8.082-.821-1.981-2.205-4.322-1.355-5.275.3-.341.669-.251,1.307-.774C352.139,625.706,352.185,624.586,352.382,624.595Z" transform="translate(-288.298 -471.828)" fill="#fff" stroke="rgba(0,0,0,0)" stroke-width="0.3"/>
    <path id="Path_12262" data-name="Path 12262" d="M335.946,559.152a13.732,13.732,0,0,1,4.88,5.447c.54,1.123.841,3.129,1.42,7.1.773,5.293.687,6.683.055,8.111a8.3,8.3,0,0,1-2.263,2.961,48.929,48.929,0,0,1-2.75-8.486,27.839,27.839,0,0,1-.682-3.714c-.355-3.544.307-5.255-.188-8.928A23.4,23.4,0,0,0,335.946,559.152Z" transform="translate(-279.163 -427.53)" fill="#fff" stroke="rgba(0,0,0,0)" stroke-width="0.3"/>
    <path id="Path_12263" data-name="Path 12263" d="M302.6,330.363c.479-.393,1.2-.242,1.964-.082a5.684,5.684,0,0,1,2.453,1.116c1.362,1.083,2.839,3.307,2.162,4.417-.306.5-2.1.41-5.679.229a1.541,1.541,0,0,1-.994-.323c-.384-.341-.4-.838-.313-2.957C302.275,330.905,302.316,330.6,302.6,330.363Z" transform="translate(-256.344 -272.762)" fill="#fff" stroke="rgba(0,0,0,0)" stroke-width="0.3"/>
    <path id="Path_12264" data-name="Path 12264" d="M307.662,350.767a2.123,2.123,0,0,1,1.29.541,1.837,1.837,0,0,1,.4.64,7.718,7.718,0,0,1,.282,2.984c-.007.937-.016,1.411-.267,1.664a1.485,1.485,0,0,1-1.082.333q-1.993.022-3.987-.021a2.5,2.5,0,0,1-2.05-.853c-.072-.115-.129-.246-.208-1.374a24.006,24.006,0,0,1,0-2.664,1.508,1.508,0,0,1,.25-1,1.4,1.4,0,0,1,1.027-.413A37.349,37.349,0,0,1,307.662,350.767Z" transform="translate(-256.247 -286.594)" fill="#fff" stroke="rgba(0,0,0,0)" stroke-width="0.3"/>
    <path id="Path_12265" data-name="Path 12265" d="M308.094,371.779a2.12,2.12,0,0,1,1.291.541,1.828,1.828,0,0,1,.4.64,7.716,7.716,0,0,1,.282,2.983c-.007.937-.016,1.411-.266,1.664a1.488,1.488,0,0,1-1.082.333q-1.993.022-3.987-.021a2.5,2.5,0,0,1-2.05-.853c-.071-.115-.129-.246-.208-1.374a24.159,24.159,0,0,1,0-2.664,1.511,1.511,0,0,1,.25-1,1.4,1.4,0,0,1,1.027-.413A37.363,37.363,0,0,1,308.094,371.779Z" transform="translate(-256.539 -300.782)" fill="#fff" stroke="rgba(0,0,0,0)" stroke-width="0.3"/>
    <path id="Path_12266" data-name="Path 12266" d="M308.257,393.576a2.04,2.04,0,0,1,.947.452,1.99,1.99,0,0,1,.521.782,5.305,5.305,0,0,1,0,3.058c-.186,1.008-.358,1.584-.358,1.584-1.15,3.851-1.725,5.776-2.776,7.357-.532.8-2.22,3.332-3.372,2.972-.642-.2-.766-1.233-1.069-3.105q-.1-2.662-.2-5.324c-.072-2.71-.1-4.853-.123-6.227-.007-.374-.023-1.181.48-1.55a1.52,1.52,0,0,1,.933-.192c1.042-.022,1.563-.033,2.126-.014A14.253,14.253,0,0,1,308.257,393.576Z" transform="translate(-256.125 -315.506)" fill="#fff" stroke="rgba(0,0,0,0)" stroke-width="0.3"/>
  </g>
</svg>
